<?xml version="1.0" encoding="utf-8"?>
<!-- Generated by IcoMoon.io -->
<!DOCTYPE svg PUBLIC "-//W3C//DTD SVG 1.1//EN" "http://www.w3.org/Graphics/SVG/1.1/DTD/svg11.dtd">
<svg version="1.1" xmlns="http://www.w3.org/2000/svg" xmlns:xlink="http://www.w3.org/1999/xlink" width="32" height="32" viewBox="0 0 32 32">
<path d="M16 16.925c3.963 0 7.175-3.677 7.175-8.212-0.001-6.291-3.213-8.213-7.175-8.213s-7.174 1.922-7.174 8.212c-0.001 4.536 3.211 8.213 7.174 8.213zM31.843 29.012l-3.62-7.975c-0.165-0.364-0.456-0.666-0.819-0.851l-5.617-2.86c-0.123-0.062-0.273-0.050-0.385 0.031-1.589 1.176-3.457 1.797-5.402 1.797s-3.813-0.621-5.402-1.797c-0.111-0.081-0.262-0.094-0.385-0.031l-5.618 2.86c-0.362 0.185-0.652 0.486-0.818 0.851l-3.62 7.975c-0.25 0.551-0.198 1.179 0.137 1.684 0.334 0.503 0.901 0.804 1.517 0.804h28.378c0.614 0 1.182-0.301 1.517-0.805s0.386-1.133 0.137-1.683z"></path>
</svg>
