<?xml version="1.0" encoding="utf-8"?>
<!-- Generated by IcoMoon.io -->
<!DOCTYPE svg PUBLIC "-//W3C//DTD SVG 1.1//EN" "http://www.w3.org/Graphics/SVG/1.1/DTD/svg11.dtd">
<svg version="1.1" xmlns="http://www.w3.org/2000/svg" xmlns:xlink="http://www.w3.org/1999/xlink" width="32" height="32" viewBox="0 0 32 32">
<path d="M27.766 3.924v0.471c0 1.293-1.052 2.345-2.345 2.345s-2.347-1.052-2.347-2.345v-0.471h-14.389v0.471c0 1.293-1.054 2.345-2.347 2.345s-2.347-1.052-2.347-2.345v-0.471h-3.992v28.076h31.758v-28.076h-3.992zM4.219 13.070h4.24v3.926h-4.24v-3.926zM8.459 28.778h-4.24v-3.928h4.24v3.928zM8.459 22.888h-4.24v-3.926h4.24v3.926zM14.819 28.778h-4.24v-3.928h4.24v3.928zM14.819 22.888h-4.24v-3.926h4.24v3.926zM14.819 16.996h-4.24v-3.926h4.24v3.926zM21.179 22.888h-4.24v-3.926h4.24v3.926zM21.179 16.996h-4.24v-3.926h4.24v3.926zM27.539 22.888h-4.24v-3.926h4.24v3.926zM27.539 16.996h-4.24v-3.926h4.24v3.926zM27.539 10.526h-23.321v-2.12h23.321v2.12z"></path>
<path d="M4.666 2.347c0-0.924 0.75-1.675 1.673-1.675s1.673 0.75 1.673 1.675v1.577h0.674v-1.577c0-1.295-1.054-2.347-2.347-2.347s-2.347 1.052-2.347 2.347v1.577h0.674v-1.577z"></path>
<path d="M6.339 6.74c1.293 0 2.347-1.054 2.347-2.347v-0.469h-0.674v0.469c0 0.922-0.75 1.675-1.673 1.675s-1.673-0.753-1.673-1.675v-0.469h-0.674v0.469c0 1.293 1.054 2.347 2.347 2.347z"></path>
<path d="M6.339 0.672c-0.922 0-1.673 0.75-1.673 1.675v1.577h0.672v-1.577c0-0.551 0.452-1.001 1.001-1.001 0.551 0 1.001 0.449 1.001 1.001v1.577h0.672v-1.577c0-0.924-0.75-1.675-1.673-1.675z"></path>
<path d="M7.34 4.393c0 0.551-0.449 1.001-1.001 1.001-0.549 0-1.001-0.449-1.001-1.001v-0.469h-0.672v0.469c0 0.922 0.75 1.675 1.673 1.675s1.673-0.753 1.673-1.675v-0.469h-0.672v0.469z"></path>
<path d="M23.747 2.347c0-0.924 0.75-1.675 1.675-1.675 0.922 0 1.673 0.75 1.673 1.675v1.577h0.67v-1.577c0.002-1.295-1.049-2.347-2.345-2.347s-2.345 1.052-2.345 2.347v1.577h0.672v-1.577z"></path>
<path d="M25.419 6.74c1.293 0 2.347-1.054 2.347-2.347v-0.469h-0.674v0.469c0 0.922-0.75 1.675-1.673 1.675s-1.673-0.753-1.673-1.675v-0.469h-0.674v0.469c0 1.293 1.054 2.347 2.347 2.347z"></path>
<path d="M25.419 0.672c-0.924 0-1.675 0.75-1.675 1.675v1.577h0.674v-1.577c0-0.551 0.449-1.001 1.001-1.001 0.549 0 1.001 0.449 1.001 1.001v1.577h0.672v-1.577c0-0.924-0.748-1.675-1.673-1.675z"></path>
<path d="M26.42 4.393c0 0.551-0.449 1.001-1.001 1.001-0.549 0-1.003-0.449-1.003-1.001v-0.469h-0.67v0.469c0 0.922 0.75 1.675 1.673 1.675s1.673-0.753 1.673-1.675v-0.469h-0.672v0.469z"></path>
</svg>
