<?xml version="1.0" encoding="utf-8"?>
<!-- Generated by IcoMoon.io -->
<!DOCTYPE svg PUBLIC "-//W3C//DTD SVG 1.1//EN" "http://www.w3.org/Graphics/SVG/1.1/DTD/svg11.dtd">
<svg version="1.1" xmlns="http://www.w3.org/2000/svg" xmlns:xlink="http://www.w3.org/1999/xlink" width="32" height="32" viewBox="0 0 32 32">
<path d="M13.602 8.347c-5.576 0-10.097 3.751-10.097 8.381 0 2.271 1.090 4.334 2.856 5.842-0.103 1.539-0.446 3.422-1.439 4.436 1.979 0 4.001-1.338 5.279-2.383 1.062 0.314 2.205 0.486 3.4 0.486 5.575 0 10.096-3.75 10.096-8.381 0.001-4.63-4.52-8.381-10.095-8.381zM27.021 17.545c0.85-1.226 1.336-2.65 1.336-4.169 0-4.63-4.52-8.381-10.096-8.381-2.454 0-4.703 0.728-6.452 1.934 0.823-0.167 1.684-0.258 2.569-0.258 6.005 0 10.873 4.129 10.873 9.22 0 2.006-0.754 3.866-2.037 5.375 1.275 1.047 3.3 2.387 5.279 2.387-1.409-1.442-1.509-4.635-1.472-6.108z"></path>
</svg>
