<?xml version="1.0" encoding="utf-8"?>
<!-- Generated by IcoMoon.io -->
<!DOCTYPE svg PUBLIC "-//W3C//DTD SVG 1.1//EN" "http://www.w3.org/Graphics/SVG/1.1/DTD/svg11.dtd">
<svg version="1.1" xmlns="http://www.w3.org/2000/svg" xmlns:xlink="http://www.w3.org/1999/xlink" width="32" height="32" viewBox="0 0 32 32">
<path d="M3.67 25.45l6.806-6.804c0.028-0.027 0.061-0.048 0.090-0.074-1.040-1.577-1.646-3.464-1.646-5.494 0-5.521 4.478-9.998 10.001-9.998s10.003 4.477 10.003 9.998c0 5.522-4.479 9.998-10.003 9.998-2.029 0-3.918-0.607-5.496-1.647-0.026 0.030-0.046 0.062-0.074 0.093l-6.806 6.803c-0.794 0.794-2.081 0.794-2.875 0-0.794-0.796-0.794-2.082 0-2.875zM18.921 19.611c3.61 0 6.536-2.926 6.536-6.533s-2.927-6.532-6.536-6.532c-3.608 0-6.534 2.925-6.534 6.532s2.926 6.533 6.534 6.533z"></path>
</svg>
