<?xml version="1.0" encoding="utf-8"?>
<!-- Generator: Adobe Illustrator 15.1.0, SVG Export Plug-In . SVG Version: 6.00 Build 0)  -->
<!DOCTYPE svg PUBLIC "-//W3C//DTD SVG 1.1//EN" "http://www.w3.org/Graphics/SVG/1.1/DTD/svg11.dtd">
<svg version="1.1" id="Layer_1" xmlns="http://www.w3.org/2000/svg" xmlns:xlink="http://www.w3.org/1999/xlink" x="0px" y="0px"
	 width="20.5px" height="14px" viewBox="-1750.5 -1225 20.5 14" enable-background="new -1750.5 -1225 20.5 14"
	 xml:space="preserve">
<rect x="-1750.437" y="-1225" fill="#009B3A" width="20.438" height="14"/>
<path fill="#FEDF00" d="M-1748.7-1218l8.481,5.3l8.481-5.3l-8.481-5.3L-1748.7-1218z"/>
<ellipse fill="#002776" cx="-1740.219" cy="-1218" rx="3.577" ry="3.5"/>
<g>
	<defs>
		<ellipse id="SVGID_1_" cx="-1740.219" cy="-1218" rx="3.577" ry="3.5"/>
	</defs>
	<clipPath id="SVGID_2_">
		<use xlink:href="#SVGID_1_"  overflow="visible"/>
	</clipPath>
	<path clip-path="url(#SVGID_2_)" fill="#FFFFFF" d="M-1750.948-1211c0-4.694,3.889-8.5,8.686-8.5c4.797,0,8.686,3.806,8.686,8.5
		h-0.511c0-4.418-3.66-8-8.175-8c-4.515,0-8.175,3.582-8.175,8H-1750.948z"/>
</g>
<g>
	<g transform="rotate(-7)">
		<path id="O" fill="#009B3A" d="M-1323.269-2689.023c0.084-0.01,0.144-0.092,0.132-0.184c-0.012-0.091-0.089-0.157-0.173-0.147
			s-0.143,0.092-0.131,0.184C-1323.43-2689.079-1323.353-2689.013-1323.269-2689.023 M-1323.277-2689.084
			c0.049-0.006,0.083-0.057,0.076-0.115c-0.007-0.058-0.053-0.099-0.102-0.093s-0.083,0.057-0.076,0.115
			C-1323.372-2689.12-1323.326-2689.079-1323.277-2689.084"/>
	</g>
	<g>
		<g id="R">
			<g transform="rotate(-4)">
				<path id="P" fill="#009B3A" d="M-1322.991-2689.053l0.062-0.004l-0.008-0.123l0.136-0.01c0.059-0.004,0.103-0.054,0.099-0.112
					c-0.004-0.058-0.055-0.101-0.114-0.097l-0.194,0.014L-1322.991-2689.053z M-1322.941-2689.243l0.131-0.009
					c0.024-0.001,0.042-0.022,0.041-0.045c-0.001-0.024-0.022-0.042-0.047-0.04l-0.131,0.009L-1322.941-2689.243z"/>
			</g>
			<path fill="#009B3A" d="M-1322.702-2689.073c-0.003-0.047-0.011-0.152-0.083-0.147l-0.093,0.006
				c0.107-0.007,0.114,0.098,0.118,0.145"/>
		</g>
		<g transform="rotate(-1)">
			<path id="D" fill="#009B3A" d="M-1322.559-2689.08l0.16-0.002c0.081-0.001,0.145-0.066,0.144-0.146l0-0.048
				c-0.001-0.079-0.068-0.142-0.149-0.14l-0.161,0.003L-1322.559-2689.08z M-1322.498-2689.143l0.093-0.001
				c0.051-0.001,0.092-0.042,0.091-0.092l0-0.028c-0.001-0.05-0.043-0.09-0.094-0.089l-0.092,0.001L-1322.498-2689.143z"/>
		</g>
		<g transform="rotate(2)">
			<path id="E" fill="#009B3A" d="M-1322.127-2689.083l0.306,0.01l0.002-0.062l-0.248-0.009l0.003-0.085l0.195,0.006l0.002-0.057
				l-0.195-0.007l0.002-0.067l0.233,0.008l0.003-0.062l-0.292-0.01L-1322.127-2689.083z"/>
		</g>
		<g transform="rotate(5)">
			<path id="M" fill="#009B3A" d="M-1321.695-2689.065l0.059,0.005l0.02-0.228l0.048,0.233l0.053,0.004l0.088-0.222l-0.021,0.228
				l0.059,0.005l0.029-0.332l-0.085-0.007l-0.088,0.222l-0.048-0.234l-0.085-0.007L-1321.695-2689.065z"/>
		</g>
		<g transform="rotate(9.75)">
			<path id="e" fill="#009B3A" d="M-1320.99-2688.988l0.252,0.042l0.01-0.057l-0.195-0.032l0.014-0.075l0.158,0.026l0.01-0.056
				l-0.158-0.027l0.009-0.051l0.188,0.032l0.01-0.057l-0.246-0.041L-1320.99-2688.988z"/>
		</g>
		<g transform="rotate(14.5)">
			<path id="P_1_" fill="#009B3A" d="M-1320.342-2688.863l0.061,0.016l0.032-0.12l0.131,0.033c0.058,0.015,0.116-0.019,0.131-0.075
				c0.015-0.056-0.02-0.113-0.077-0.127l-0.189-0.048L-1320.342-2688.863z M-1320.233-2689.028l0.126,0.032
				c0.024,0.006,0.047-0.008,0.054-0.031s-0.008-0.046-0.032-0.052l-0.127-0.032L-1320.233-2689.028z"/>
		</g>
		<g>
			<g id="R_1_">
				<g transform="rotate(17.5)">
					<path id="P_2_" fill="#009B3A" d="M-1319.925-2688.754l0.061,0.019l0.038-0.118l0.13,0.04c0.057,0.017,0.116-0.014,0.134-0.068
						c0.018-0.056-0.014-0.114-0.07-0.132l-0.186-0.057L-1319.925-2688.754z M-1319.807-2688.913l0.126,0.039
						c0.022,0.007,0.047-0.005,0.055-0.028c0.007-0.022-0.006-0.046-0.029-0.054l-0.125-0.039L-1319.807-2688.913z"/>
				</g>
				<path fill="#009B3A" d="M-1319.649-2688.669c0.015-0.045,0.047-0.146-0.022-0.167l-0.088-0.027
					c0.103,0.032,0.07,0.132,0.056,0.177"/>
			</g>
			<g transform="rotate(20.5)">
				<path id="O_1_" fill="#009B3A" d="M-1319.369-2688.571c0.079,0.029,0.17-0.018,0.203-0.104c0.033-0.086-0.004-0.18-0.083-0.209
					c-0.08-0.029-0.17,0.018-0.203,0.104C-1319.486-2688.694-1319.448-2688.601-1319.369-2688.571 M-1319.347-2688.629
					c0.046,0.017,0.102-0.013,0.122-0.067s0-0.112-0.047-0.129s-0.101,0.013-0.122,0.067
					C-1319.415-2688.704-1319.394-2688.646-1319.347-2688.629"/>
			</g>
			<g>
				<g id="G">
					<g>
						<defs>
							<path id="SVGID_3_" d="M-1319.109-2688.473l0.136-0.306l0.281,0.12l-0.136,0.306L-1319.109-2688.473z M-1318.877-2688.618
								l-0.023,0.053l0.141,0.06l0.023-0.053L-1318.877-2688.618z"/>
						</defs>
						<clipPath id="SVGID_4_">
							<use xlink:href="#SVGID_3_"  overflow="visible"/>
						</clipPath>
						<g transform="rotate(23.5)" clip-path="url(#SVGID_4_)">
							<path id="O_2_" fill="#009B3A" d="M-1318.969-2688.413c0.078,0.033,0.171-0.008,0.208-0.093s0.005-0.18-0.072-0.213
								c-0.078-0.033-0.171,0.009-0.208,0.093C-1319.079-2688.541-1319.046-2688.446-1318.969-2688.413 M-1318.943-2688.47
								c0.045,0.02,0.102-0.008,0.125-0.061c0.023-0.053,0.006-0.112-0.04-0.131c-0.045-0.02-0.102,0.008-0.125,0.061
								C-1319.007-2688.548-1318.989-2688.489-1318.943-2688.47"/>
						</g>
					</g>
					
						<rect x="-1318.893" y="-2688.533" transform="matrix(-0.9201 -0.3916 0.3916 -0.9201 -1479.4326 -5678.7598)" fill="#009B3A" width="0.128" height="0.048"/>
					
						<rect x="-1318.84" y="-2688.522" transform="matrix(-0.9191 -0.3939 0.3939 -0.9191 -1471.9712 -5679.0117)" fill="#009B3A" width="0.048" height="0.167"/>
				</g>
				<g transform="translate(-420,1470)">
					<g id="R_2_">
						<g transform="rotate(26.5)">
							<path id="P_3_" fill="#009B3A" d="M-1318.714-2688.301l0.057,0.027l0.056-0.111l0.122,0.06
								c0.053,0.026,0.118,0.005,0.143-0.047c0.027-0.052,0.005-0.115-0.048-0.141l-0.174-0.085L-1318.714-2688.301z
								 M-1318.573-2688.439l0.118,0.057c0.021,0.011,0.048,0.002,0.059-0.019c0.011-0.021,0.002-0.047-0.02-0.058l-0.118-0.057
								L-1318.573-2688.439z"/>
						</g>
						<path fill="#009B3A" d="M-1318.455-2688.175c0.021-0.042,0.069-0.136,0.005-0.168l-0.083-0.041
							c0.096,0.047,0.048,0.141,0.026,0.183"/>
					</g>
					<g transform="rotate(29.5)">
						<path id="E_1_" fill="#009B3A" d="M-1318.328-2688.109l0.267,0.148l0.031-0.054l-0.216-0.119l0.043-0.075l0.169,0.094
							l0.028-0.05l-0.169-0.094l0.033-0.058l0.204,0.113l0.031-0.054l-0.254-0.141L-1318.328-2688.109z"/>
					</g>
					<g transform="rotate(32.5)">
						<path id="S" fill="#009B3A" d="M-1317.831-2687.946c-0.019,0.028,0,0.06,0.041,0.085c0.041,0.025,0.069,0.024,0.081,0.006
							c0.038-0.057-0.178-0.141-0.112-0.24c0.058-0.086,0.155-0.019,0.192,0.004c0.037,0.023,0.096,0.083,0.05,0.151l-0.063-0.039
							c0.02-0.03-0.001-0.059-0.034-0.08c-0.032-0.02-0.058-0.029-0.077,0c-0.032,0.047,0.18,0.134,0.115,0.234
							c-0.048,0.073-0.13,0.042-0.186,0.007c-0.047-0.029-0.118-0.099-0.072-0.169L-1317.831-2687.946z"/>
					</g>
					<g transform="rotate(35.5)">
						<path id="S_1_" fill="#009B3A" d="M-1317.466-2687.709c-0.02,0.027-0.003,0.059,0.036,0.087
							c0.04,0.028,0.068,0.028,0.081,0.011c0.04-0.055-0.171-0.15-0.099-0.246c0.061-0.083,0.155-0.011,0.191,0.014
							c0.035,0.025,0.092,0.087,0.042,0.153l-0.061-0.042c0.021-0.029,0.001-0.059-0.03-0.081c-0.031-0.021-0.057-0.032-0.077-0.004
							c-0.034,0.045,0.172,0.144,0.103,0.239c-0.052,0.071-0.133,0.035-0.186-0.002c-0.046-0.032-0.113-0.105-0.063-0.172
							L-1317.466-2687.709z"/>
					</g>
					<g transform="rotate(38.5)">
						<path id="O_3_" fill="#009B3A" d="M-1317.12-2687.326c0.066,0.052,0.167,0.035,0.226-0.037
							c0.059-0.072,0.052-0.172-0.014-0.224c-0.066-0.052-0.167-0.035-0.226,0.037S-1317.186-2687.377-1317.12-2687.326
							 M-1317.081-2687.375c0.039,0.03,0.101,0.018,0.137-0.027c0.037-0.045,0.036-0.107-0.003-0.137
							c-0.039-0.03-0.101-0.018-0.138,0.027C-1317.121-2687.466-1317.12-2687.405-1317.081-2687.375"/>
					</g>
				</g>
				<g>
					<g>
						<g>
							<g id="c">
								<path id="t" fill="#FFFFFF" d="M-1323.138-2688.778l-0.047,0.143l0.073,0.023"/>
								<g transform="scale(-1,1)">
									<path id="t_1_" fill="#FFFFFF" d="M-1323.138-2688.778l0.047,0.143l-0.073,0.023"/>
								</g>
							</g>
							<g>
								<g id="c_1_">
									<path id="t_2_" fill="#FFFFFF" d="M-1322.992-2688.675h-0.153v0.075"/>
									<g transform="rotate(72)">
										<path id="t_3_" fill="#FFFFFF" d="M-1322.992-2688.675l-0.125,0.088l-0.045-0.061"/>
									</g>
								</g>
								<g>
									<g id="c_2_">
										<path id="t_4_" fill="#FFFFFF" d="M-1323.284-2688.675l0.124,0.088l0.045-0.061"/>
										<g transform="rotate(-72)">
											<path id="t_5_" fill="#FFFFFF" d="M-1323.284-2688.675h0.153v0.075"/>
										</g>
									</g>
									<g>
										<g id="c_3_">
											<path id="t_6_" fill="#FFFFFF" d="M-1323.048-2688.507l-0.047-0.143l-0.073,0.023"/>
											<g transform="rotate(144)">
												<path id="t_7_" fill="#FFFFFF" d="M-1323.048-2688.507l-0.124-0.088l0.045-0.061"/>
											</g>
										</g>
										<g id="star">
											<g id="c_4_">
												<path id="t_8_" fill="#FFFFFF" d="M-1323.228-2688.507l0.124-0.088l-0.045-0.061"/>
												<g id="αCMi" transform="scale(31.5)">
													<path id="t_9_" fill="#FFFFFF" d="M-1323.228-2688.507l0.047-0.143l0.073,0.023"/>
												</g>
											</g>
										</g>
										<g>
											<g>
												<g>
													<g id="c_5_">
														<path id="t_10_" fill="#FFFFFF" d="M-1322.822-2687.307l-0.047,0.143l0.073,0.023"/>
														<g transform="scale(-1,1)">
															<path id="t_11_" fill="#FFFFFF" d="M-1322.822-2687.307l0.048,0.143l-0.073,0.023"/>
														</g>
													</g>
													<g>
														<g id="c_6_">
															<path id="t_12_" fill="#FFFFFF" d="M-1322.676-2687.204h-0.153v0.075"/>
															<g transform="rotate(72)">
																<path id="t_13_" fill="#FFFFFF" d="M-1322.676-2687.204l-0.124,0.088l-0.045-0.061"/>
															</g>
														</g>
														<g>
															<g id="c_7_">
																<path id="t_14_" fill="#FFFFFF" d="M-1322.968-2687.204l0.124,0.088l0.045-0.061"/>
																<g transform="rotate(-72)">
																	<path id="t_15_" fill="#FFFFFF" d="M-1322.968-2687.204h0.153v0.075"/>
																</g>
															</g>
															<g>
																<g id="c_8_">
																	<path id="t_16_" fill="#FFFFFF" d="M-1322.732-2687.036l-0.047-0.143l-0.073,0.023"/>
																	<g transform="rotate(144)">
																		<path id="t_17_" fill="#FFFFFF" d="M-1322.732-2687.036l-0.125-0.088l0.046-0.061"/>
																	</g>
																</g>
																<g id="star_1_">
																	<g id="c_9_">
																		<path id="t_18_" fill="#FFFFFF" d="M-1322.912-2687.036l0.124-0.088l-0.045-0.061"/>
																		<g id="αCMa" transform="scale(31.5)">
																			<path id="t_19_" fill="#FFFFFF" d="M-1322.912-2687.036l0.047-0.143l0.073,0.023"/>
																		</g>
																	</g>
																</g>
																<g>
																	<g>
																		<g>
																			<g id="c_10_">
																				<path id="t_20_" fill="#FFFFFF" d="M-1323.26-2686.968l-0.04,0.119l0.061,0.019"/>
																				<g transform="scale(-1,1)">
																					<path id="t_21_" fill="#FFFFFF" d="M-1323.26-2686.968l0.039,0.119l-0.061,0.019"/>
																				</g>
																			</g>
																			<g>
																				<g id="c_11_">
																					<path id="t_22_" fill="#FFFFFF" d="M-1323.138-2686.881h-0.128v0.062"/>
																					<g transform="rotate(72)">
																						<path id="t_23_" fill="#FFFFFF" d="M-1323.138-2686.881l-0.104,0.073l-0.037-0.05"/>
																					</g>
																				</g>
																				<g>
																					<g id="c_12_">
																						<path id="t_24_" fill="#FFFFFF" d="M-1323.382-2686.881l0.104,0.073l0.038-0.05"/>
																						<g transform="rotate(-72)">
																							<path id="t_25_" fill="#FFFFFF" d="M-1323.382-2686.881h0.128v0.062"/>
																						</g>
																					</g>
																					<g>
																						<g id="c_13_">
																							<path id="t_26_" fill="#FFFFFF" d="M-1323.185-2686.742l-0.04-0.119l-0.061,0.019"/>
																							<g transform="rotate(144)">
																								<path id="t_27_" fill="#FFFFFF" d="M-1323.185-2686.742l-0.103-0.074l0.038-0.05"/>
																							</g>
																						</g>
																						<g id="star_2_">
																							<g id="c_14_">
																								<path id="t_28_" fill="#FFFFFF" d="M-1323.335-2686.742l0.104-0.074l-0.038-0.05"/>
																								<g id="βCMa" transform="scale(26.25)">
																									<path id="t_29_" fill="#FFFFFF" d="M-1323.335-2686.742l0.04-0.119l0.061,0.019"/>
																								</g>
																							</g>
																						</g>
																						<g>
																							<g>
																								<g>
																									<g id="c_15_">
																										<path id="t_30_" fill="#FFFFFF" d="M-1322.471-2687.443l-0.022,0.068l0.035,0.011"/>
																										<g transform="scale(-1,1)">
																											<path id="t_31_" fill="#FFFFFF" d="M-1322.471-2687.443l0.022,0.068l-0.035,0.011"/>
																										</g>
																									</g>
																									<g>
																										<g id="c_16_">
																											<path id="t_32_" fill="#FFFFFF" d="M-1322.402-2687.394h-0.073v0.036"/>
																											<g transform="rotate(72)">
																												<path id="t_33_" fill="#FFFFFF" d="M-1322.402-2687.394l-0.059,0.042l-0.022-0.029"/>
																											</g>
																										</g>
																										<g>
																											<g id="c_17_">
																												<path id="t_34_" fill="#FFFFFF" d="M-1322.541-2687.394l0.059,0.042l0.021-0.029"/>
																												<g transform="rotate(-72)">
																													<path id="t_35_" fill="#FFFFFF" d="M-1322.541-2687.394h0.073v0.036"/>
																												</g>
																											</g>
																											<g transform="rotate(216)">
																												<g id="c_18_">
																													<path id="t_36_" fill="#FFFFFF" d="M-1322.428-2687.313l-0.022-0.068l-0.035,0.011"/>
																													<path id="t_37_" fill="#FFFFFF" d="M-1322.428-2687.313l-0.06-0.042l0.021-0.029"/>
																												</g>
																												<g id="star4" transform="scale(15)">
																												</g>
																											</g>
																											<g>
																												<g id="star2" transform="scale(26.25)">
																												</g>
																											</g>
																										</g>
																									</g>
																								</g>
																							</g>
																						</g>
																					</g>
																				</g>
																			</g>
																		</g>
																	</g>
																</g>
															</g>
														</g>
													</g>
												</g>
											</g>
										</g>
									</g>
								</g>
							</g>
						</g>
					</g>
				</g>
			</g>
		</g>
	</g>
</g>
</svg>
