<?xml version="1.0" encoding="utf-8"?>
<!-- Generator: Adobe Illustrator 15.1.0, SVG Export Plug-In . SVG Version: 6.00 Build 0)  -->
<!DOCTYPE svg PUBLIC "-//W3C//DTD SVG 1.1//EN" "http://www.w3.org/Graphics/SVG/1.1/DTD/svg11.dtd">
<svg version="1.1"
	 id="svg1" xmlns:sodipodi="http://sodipodi.sourceforge.net/DTD/sodipodi-0.dtd" sodipodi:version="0.33pre" sodipodi:docname="uk_flag.svg"
	 xmlns="http://www.w3.org/2000/svg" xmlns:xlink="http://www.w3.org/1999/xlink" x="0px" y="0px" width="20px" height="14px"
	 viewBox="490 243 20 14" enable-background="new 490 243 20 14" xml:space="preserve">
<sodipodi:namedview  id="base"></sodipodi:namedview>
<g id="g578" transform="scale(16.66667,16.66667)">
	<rect id="rect124" x="29.4" y="14.58" fill="#000066" width="1.2" height="0.84"/>
	<g id="g584">
		<path id="path146" fill="#FFFFFF" d="M29.4,14.58v0.094l1.066,0.746H30.6v-0.094l-1.066-0.746H29.4z M30.6,14.58v0.094
			l-1.066,0.746H29.4v-0.094l1.066-0.746H30.6z"/>
		<path id="path136" fill="#FFFFFF" d="M29.9,14.58v0.84h0.2v-0.84H29.9z M29.4,14.86v0.28h1.2v-0.28H29.4z"/>
		<path id="path141" fill="#CC0000" d="M29.4,14.916v0.168h1.2v-0.168H29.4z M29.94,14.58v0.84h0.12v-0.84H29.94z"/>
		<path id="path150" fill="#CC0000" d="M29.4,15.42l0.4-0.28h0.089l-0.4,0.28H29.4z M29.4,14.58l0.4,0.28h-0.089L29.4,14.643V14.58z
			 M30.111,14.86l0.4-0.28H30.6l-0.4,0.28H30.111z M30.6,15.42l-0.4-0.28h0.089l0.311,0.217V15.42z"/>
	</g>
</g>
</svg>
